<svg xmlns="http://www.w3.org/2000/svg" viewBox="0 0 109.33 109.35"><defs><style>.cls-1{fill:#6181c0;}.cls-1,.cls-2{fill-rule:evenodd;}.cls-2{fill:#fefefe;}</style></defs><g id="Layer_2" data-name="Layer 2"><g id="Layer_1-2" data-name="Layer 1"><path class="cls-1" d="M28.8,0H80.53a28.9,28.9,0,0,1,28.8,28.8V80.54a28.9,28.9,0,0,1-28.8,28.81H28.8A28.88,28.88,0,0,1,0,80.54V28.8A28.88,28.88,0,0,1,28.8,0Z"/><path class="cls-2" d="M59.58,41.39v-5.3c0-2.58,1.73-3.18,3-3.18H70V21.55l-10.26-.06c-11.37,0-14,8.48-14,13.92v6H39.17V54.66h6.64v33.2H59.07V54.66h9.87l.48-5.19.74-8.08Z"/></g></g></svg>