<svg xmlns="http://www.w3.org/2000/svg" viewBox="0 0 109.33 109.35"><defs><style>.cls-1{fill:#e52b33;}.cls-1,.cls-2{fill-rule:evenodd;}.cls-2{fill:#fefefe;}</style></defs><g id="Layer_2" data-name="Layer 2"><g id="Layer_1-2" data-name="Layer 1"><path class="cls-1" d="M28.8,0H80.53a28.9,28.9,0,0,1,28.8,28.8V80.54a28.9,28.9,0,0,1-28.8,28.81H28.8A28.88,28.88,0,0,1,0,80.54V28.8A28.88,28.88,0,0,1,28.8,0Z"/><path class="cls-2" d="M78.49,51.4H77.27V50.32c0-1.53,0-3.06,0-4.62,0-.26-.25-.71-.42-.71-1.39-.06-2.81,0-4.28,0V51.4H66.08v1.13c0,1.16.11,2.33.17,3.49l3.4.11c1,0,1.9,0,2.94,0v6.35h4.65V56.13h6.38V51.4Zm-18.28-.54c-4,.06-8,0-12.05,0-1.13,0-2.3,0-3.43,0-.23,0-.62.25-.62.42,0,2.3,0,4.62,0,7.06h9.84c-.12.48-.2.82-.32,1.16-1.5,4.48-6.12,6.69-11.08,5.87a10.84,10.84,0,0,1-8.9-12.87,10,10,0,0,1,.79-2.47A10.8,10.8,0,0,1,46.46,44a10.32,10.32,0,0,1,4.62,2.38c1.79-1.79,3.51-3.54,5.39-5.41A5.32,5.32,0,0,1,56,40.6a17.79,17.79,0,0,0-14.94-4.09A18.35,18.35,0,0,0,26,51.54a17.89,17.89,0,0,0,1,9.75A18.51,18.51,0,0,0,46.35,73,16.53,16.53,0,0,0,57,68c4.23-4.5,5.33-10,4.65-15.93-.11-1-.51-1.19-1.44-1.19Z"/></g></g></svg>